<svg width="512" height="512" viewBox="0 0 512 512" xmlns="http://www.w3.org/2000/svg">
    <defs>
        <linearGradient id="gradient" x1="0%" y1="0%" x2="100%" y2="100%">
            <stop offset="0%" style="stop-color:#000000;stop-opacity:1" />
            <stop offset="100%" style="stop-color:#333333;stop-opacity:1" />
        </linearGradient>
    </defs>
    
    <!-- Apple-like shape -->
    <path d="M256,76 C220,76 190,106 190,142 C190,178 220,208 256,208 C292,208 322,178 322,142 C322,106 292,76 256,76 Z M256,436 C220,436 190,406 190,370 C190,334 220,304 256,304 C292,304 322,334 322,370 C322,406 292,436 256,436 Z" 
          fill="url(#gradient)" 
          stroke="#000" 
          stroke-width="2"/>
    
    <!-- Stem -->
    <rect x="248" y="50" width="16" height="26" fill="#000"/>
    
    <!-- SYSM Letters -->
    <g transform="translate(150, 230)" fill="#FFFFFF" font-family="Helvetica-Bold" font-size="60">
        <text>S</text>
        <text x="75">Y</text>
        <text x="150">S</text>
        <text x="225">M</text>
    </g>
</svg>